<svg xmlns="http://www.w3.org/2000/svg" version="1.1" xmlnsXlink="http://www.w3.org/1999/xlink" xmlnsSvgjs="http://svgjs.dev/svgjs" width="80" height="50" viewBox="0 0 2000 1247"><g transform="matrix(1,0,0,1,-1.2121212121212466,0.504858299595071)"><svg viewBox="0 0 396 247" data-background-color="#ffffff" preserveAspectRatio="xMidYMid meet" height="1247" width="2000" xmlns="http://www.w3.org/2000/svg" xmlnsXlink="http://www.w3.org/1999/xlink"><g id="tight-bounds" transform="matrix(1,0,0,1,0.2400000000000091,-0.09999999999999432)"><svg viewBox="0 0 395.52 247.2" height="247.2" width="395.52"><g><svg></svg></g><g><svg viewBox="0 0 395.52 247.2" height="247.2" width="395.52"><mask id="ed3d09b5-1331-4fb2-914a-f2453babad54"><rect width="395.52" height="247.2" fill="white"></rect><g transform="matrix(1,0,0,1,41.280373197625096,37.08)" id="clone"><svg viewBox="0 0 312.9592536047498 173.04" height="173.04" width="312.9592536047498"><g><svg viewBox="0 0 312.9592536047498 173.04" height="173.04" width="312.9592536047498"><g><svg viewBox="0 0 312.9592536047498 173.04" height="173.04" width="312.9592536047498"><g id="SvgjsG1022"><svg viewBox="0 0 312.9592536047498 173.04" height="173.04" width="312.9592536047498" id="SvgjsSvg1021"><g><svg viewBox="0 0 312.9592536047498 173.04" height="173.04" width="312.9592536047498"><g transform="matrix(1,0,0,1,0,0)"><svg width="312.9592536047498" viewBox="-2.95 -32.54 63.470000000000006 35.54" height="173.04" data-palette-color="#4c4c4c"><path d="M8.35 0L0.15 0 0.05-1.86 2.44-2.54 12.5-27.83 15.33-29.54 25.98-2.54 28.42-1.86 28.27 0 18.41 0 18.31-1.86 21.29-2.54 18.41-9.77 17.87-11.28 12.55-24.56 13.67-25.2 8.59-11.28 8.06-9.81 5.47-2.54 8.45-1.86 8.35 0ZM6.98-9.03L6.98-9.03 6.98-11.62Q7.91-11.57 9.52-11.52 11.13-11.47 13.48-11.47L13.48-11.47Q15.77-11.47 17.41-11.52 19.04-11.57 19.92-11.62L19.92-11.62 19.92-9.03Q18.26-9.08 16.63-9.11 14.99-9.13 13.48-9.13L13.48-9.13Q12.01-9.13 10.42-9.11 8.84-9.08 6.98-9.03ZM57.52 0L46.14 0 46.04-1.86 48.97-2.34Q48.63-2.88 48.17-3.47 47.7-4.05 47.07-4.79L47.07-4.79 39.6-13.28 37.55-13.28 37.55-15.09 40.13-15.77 50.19-26.17 47.21-26.81 47.31-28.66 56.74-28.66 56.83-26.71 54-26.22 42.23-15.09 42.38-16.55 51.71-6.15Q52.54-5.27 53.15-4.57 53.76-3.86 54.25-3.34 54.73-2.83 55.08-2.49L55.08-2.49 57.52-1.9 57.52 0ZM41.11 0L30.91 0 30.76-1.86 33.74-2.54Q33.84-2.88 33.88-4.69 33.93-6.49 33.93-9.72L33.93-9.72 33.93-18.9Q33.93-21.09 33.91-22.63 33.88-24.17 33.86-25.05 33.84-25.93 33.74-26.12L33.74-26.12 30.71-26.81 30.86-28.66 41.26-28.66 41.35-26.81 38.38-26.12Q38.28-25.98 38.21-25.15 38.13-24.32 38.11-22.78 38.08-21.24 38.08-18.9L38.08-18.9 38.08-9.72Q38.08-6.49 38.16-4.69 38.23-2.88 38.28-2.54L38.28-2.54 41.26-1.86 41.11 0Z" opacity="1" transform="matrix(1,0,0,1,0,0)" fill="black" class="wordmark-text-0" id="SvgjsPath1020" stroke-width="5" stroke="black" stroke-linejoin="round"></path></svg></g></svg></g></svg></g></svg></g><g></g></svg></g></svg></g></mask><g mask="url(#ed3d09b5-1331-4fb2-914a-f2453babad54)"><g><path d="M148.514 247.196h-68.618l-0.836-15.565 19.999-5.69 84.182-211.627 23.682-14.31 89.119 225.937 20.418 5.69-1.255 15.565h-82.509l-0.836-15.565 24.936-5.69-24.1-60.501-4.518-12.636-44.518-111.127 9.372-5.356-42.51 116.483-4.435 12.301-21.673 60.836 24.937 5.69zM137.05 171.632v0-21.673c5.188 0.279 12.273 0.558 21.255 0.837 8.982 0.279 20.027 0.418 33.137 0.418v0c12.775 0 23.737-0.139 32.886-0.418 9.093-0.279 16.095-0.558 21.004-0.837v0 21.673c-9.261-0.279-18.438-0.502-27.531-0.669-9.149-0.112-17.935-0.167-26.359-0.167v0c-8.201 0-16.736 0.056-25.606 0.167-8.814 0.167-18.41 0.391-28.786 0.669z" fill="#dedede" fill-rule="nonzero" stroke="none" stroke-width="1" stroke-linecap="butt" stroke-linejoin="miter" stroke-miterlimit="10" stroke-dasharray="" stroke-dashoffset="0" font-family="none" font-weight="none" font-size="none" text-anchor="none" style="mix-blend-mode: normal" data-fill-palette-color="tertiary"></path></g></g><g transform="matrix(1,0,0,1,41.280373197625096,37.08)"><svg viewBox="0 0 312.9592536047498 173.04" height="173.04" width="312.9592536047498"><g><svg viewBox="0 0 312.9592536047498 173.04" height="173.04" width="312.9592536047498"><g><svg viewBox="0 0 312.9592536047498 173.04" height="173.04" width="312.9592536047498"><g id="textblocktransform"><svg viewBox="0 0 312.9592536047498 173.04" height="173.04" width="312.9592536047498" id="textblock"><g><svg viewBox="0 0 312.9592536047498 173.04" height="173.04" width="312.9592536047498"><g transform="matrix(1,0,0,1,0,0)"><svg width="312.9592536047498" viewBox="-2.95 -32.54 63.470000000000006 35.54" height="173.04" data-palette-color="#4c4c4c"><path d="M8.35 0L0.15 0 0.05-1.86 2.44-2.54 12.5-27.83 15.33-29.54 25.98-2.54 28.42-1.86 28.27 0 18.41 0 18.31-1.86 21.29-2.54 18.41-9.77 17.87-11.28 12.55-24.56 13.67-25.2 8.59-11.28 8.06-9.81 5.47-2.54 8.45-1.86 8.35 0ZM6.98-9.03L6.98-9.03 6.98-11.62Q7.91-11.57 9.52-11.52 11.13-11.47 13.48-11.47L13.48-11.47Q15.77-11.47 17.41-11.52 19.04-11.57 19.92-11.62L19.92-11.62 19.92-9.03Q18.26-9.08 16.63-9.11 14.99-9.13 13.48-9.13L13.48-9.13Q12.01-9.13 10.42-9.11 8.84-9.08 6.98-9.03ZM57.52 0L46.14 0 46.04-1.86 48.97-2.34Q48.63-2.88 48.17-3.47 47.7-4.05 47.07-4.79L47.07-4.79 39.6-13.28 37.55-13.28 37.55-15.09 40.13-15.77 50.19-26.17 47.21-26.81 47.31-28.66 56.74-28.66 56.83-26.71 54-26.22 42.23-15.09 42.38-16.55 51.71-6.15Q52.54-5.27 53.15-4.57 53.76-3.86 54.25-3.34 54.73-2.83 55.08-2.49L55.08-2.49 57.52-1.9 57.52 0ZM41.11 0L30.91 0 30.76-1.86 33.74-2.54Q33.84-2.88 33.88-4.69 33.93-6.49 33.93-9.72L33.93-9.72 33.93-18.9Q33.93-21.09 33.91-22.63 33.88-24.17 33.86-25.05 33.84-25.93 33.74-26.12L33.74-26.12 30.71-26.81 30.86-28.66 41.26-28.66 41.35-26.81 38.38-26.12Q38.28-25.98 38.21-25.15 38.13-24.32 38.11-22.78 38.08-21.24 38.08-18.9L38.08-18.9 38.08-9.72Q38.08-6.49 38.16-4.69 38.23-2.88 38.28-2.54L38.28-2.54 41.26-1.86 41.11 0Z" opacity="1" transform="matrix(1,0,0,1,0,0)" fill="#4c4c4c" class="wordmark-text-0" data-fill-palette-color="primary" id="text-0"></path></svg></g></svg></g></svg></g></svg></g><g></g></svg></g></svg></g></svg></g><defs></defs></svg><rect width="395.52" height="247.2" fill="none" stroke="none" visibility="hidden"></rect></g></svg></g></svg>